<svg height="512" viewBox="0 0 128 128" width="512" xmlns="http://www.w3.org/2000/svg"><g><path d="m100.862 5.25a1.751 1.751 0 0 0 -1.75 1.75v32.521h-70.224v-32.521a1.75 1.75 0 0 0 -3.5 0v34.271a1.75 1.75 0 0 0 1.75 1.75h73.724a1.75 1.75 0 0 0 1.75-1.75v-34.271a1.75 1.75 0 0 0 -1.75-1.75z" fill="#75e1f7"/><g><path d="m57.669 60.161-2.085 11.573h16.832l-2.085-11.573z" fill="#4d5e80"/><path d="m31.139 80.347h6.823v8.414h-6.823z" fill="#c5e2f9"/><path d="m90.038 80.347h6.823v8.414h-6.823z" fill="#c5e2f9"/><path d="m37.962 71.734h52.076v49.266h-52.076z" fill="#def6ff"/><path d="m64 7a28.612 28.612 0 0 0 -28.613 28.613v11.315a13.233 13.233 0 0 0 13.233 13.233h30.76a13.233 13.233 0 0 0 13.233-13.233v-11.315a28.612 28.612 0 0 0 -28.613-28.613z" fill="#def6ff"/><g fill="#f95353"><path d="m55.246 21.9a3.913 3.913 0 1 0 3.913 3.913 3.913 3.913 0 0 0 -3.913-3.913z"/><path d="m72.754 21.9a3.913 3.913 0 1 0 3.913 3.913 3.913 3.913 0 0 0 -3.913-3.913z"/></g><path d="m16.949 97.374h10.157v23.626h-10.157z" fill="#def6ff"/><path d="m100.894 97.374h10.157v23.626h-10.157z" fill="#def6ff"/><rect fill="#75e1f7" height="13.426" rx="6.713" width="30.176" x="48.912" y="89.654"/><g fill="#4d5e80"><path d="m12.915 81.734v15.64h18.224v-25.64h-8.224a10 10 0 0 0 -10 10z"/><path d="m105.085 71.734h-8.224v25.64h18.224v-15.64a10 10 0 0 0 -10-10z"/><path d="m32.215 35.613-1.076 11.315h65.722l-1.076-11.315z"/></g></g></g></svg>